<svg id="Layer_4" data-name="Layer 4" xmlns="http://www.w3.org/2000/svg" xmlns:xlink="http://www.w3.org/1999/xlink" viewBox="0 0 470.51 520.68"><defs><style>.cls-1{fill:url(#linear-gradient);}.cls-2{fill:url(#linear-gradient-2);}.cls-3{fill:url(#linear-gradient-3);}.cls-4{fill:url(#linear-gradient-4);}</style><linearGradient id="linear-gradient" x1="478.33" y1="365.82" x2="116.79" y2="574.56" gradientUnits="userSpaceOnUse"><stop offset="0" stop-color="#fff"/><stop offset="0.32" stop-color="#2559f4"/><stop offset="0.65" stop-color="#14214a"/><stop offset="0.91" stop-color="#022022"/></linearGradient><linearGradient id="linear-gradient-2" x1="73.47" y1="439.5" x2="327" y2="439.5" gradientUnits="userSpaceOnUse"><stop offset="0" stop-color="#14214a"/><stop offset="0.42" stop-color="#14214a"/><stop offset="0.73" stop-color="#101423"/><stop offset="1" stop-color="#022022"/></linearGradient><linearGradient id="linear-gradient-3" x1="531.26" y1="143.19" x2="49" y2="421.63" gradientUnits="userSpaceOnUse"><stop offset="0" stop-color="#fff"/><stop offset="0.42" stop-color="#2559f4"/><stop offset="0.73" stop-color="#14214a"/><stop offset="1" stop-color="#022022"/></linearGradient><linearGradient id="linear-gradient-4" x1="273.14" y1="538.22" x2="200.08" y2="664.77" gradientUnits="userSpaceOnUse"><stop offset="0.06" stop-color="#022022"/><stop offset="0.47" stop-color="#14214a"/><stop offset="1"/></linearGradient></defs><path class="cls-1" d="M186,651.93v0S160.79,617.24,167,579.46c4.4-26.62,22.51-43.39,27.11-47.53,14.94-13.46,30.85-18.61,41.7-21.79a434.52,434.52,0,0,1,50.73-11.41c39.07-6.69,58.61-10,60.37-10.42,26-5.82,59.05-13.2,87.54-39.36,7.28-6.69,42.55-40.57,42.55-85.36h0c-18.85,2-42,4.6-68.34,8-24.36,3.13-40.95,5.56-73.13,10.3-53,7.81-79.7,11.78-92.31,15.23-26.24,7.18-50.3,13.76-77,32.3-15.94,11.07-41.54,28.89-55.19,62.85a122.88,122.88,0,0,0-8.17,55.49v0a125.18,125.18,0,0,0,6.54,14,288.33,288.33,0,0,0,21.87,33.1,343.06,343.06,0,0,0,23.84,27.26C162.84,630.23,173.13,640.53,186,651.93Z" transform="translate(-70.75 -157.19)"/><path class="cls-2" d="M327,331.25c-47.09,14.69-76.34,29.87-76.34,29.87C210,383,182.37,408.69,173,418.51l-18,19s-11.41,9.3-17.91,15.52a112.38,112.38,0,0,0-32.43,61.69,108.18,108.18,0,0,0-2,22.3c0,1.93.36,10.73.34,10.73h0c-.06-.11-6.46-12-9.37-17.71a184.78,184.78,0,0,1-11.74-29.44A279.56,279.56,0,0,1,73.47,464v-.12a129.47,129.47,0,0,1,8.07-30c3-7.61,6.41-16.37,13.49-26.73A107.75,107.75,0,0,1,112.85,387c9.25-8,17.44-12,27.16-16.7,13-6.34,23.39-9.55,32.78-12.45a282.29,282.29,0,0,1,35.82-8.64c3.24-.55,10.31-1.5,24.31-3.36,12.91-1.72,19.84-2.6,24.16-3.17,35.73-4.7,69.92-11.38,69.92-11.38Z" transform="translate(-70.75 -157.19)"/><path class="cls-3" d="M73.47,464v0c0-.1-4.92-29.16-1.53-59.72,3.11-28.11,12.88-54.17,15-59.75h0c1.43-3.67,3.52-8.74,6.3-14.65,3.12-6.65,16.49-34.26,38.72-58.37,29.39-31.88,63.88-46.37,77.87-52.08,23-9.4,50.06-14.83,104.17-25.71,6.65-1.33,13-2.4,13.34-2.45,10.59-1.71,17.57-2.09,73.13-11.16,65.8-10.75,133.1-22.81,133.1-22.81-2.19-.23,4.85-.13,6.47,1.36s1.2,4.73,1,5.79c-10.93,66.64-33,93.27-33,93.27-37.93,45.73-93.65,57.61-117.61,62.72-18.91,4-59.84,10.21-63.41,10.82,0,0-49,9.27-97.63,15-5.6.66-13.88,1.58-25.18,3.75a289.81,289.81,0,0,0-36.83,9.5c-6.06,2-30.94,10.4-48,22.42C86.52,405,76.63,446,73.47,464Z" transform="translate(-70.75 -157.19)"/><path class="cls-4" d="M186,651.93a121.81,121.81,0,0,1-10.9-19.9,104.94,104.94,0,0,1-7.21-22.6,83.41,83.41,0,0,1,.51-36.28c6.62-26.63,25.75-41.59,31.74-46.14A90.05,90.05,0,0,1,223,514.43a149.18,149.18,0,0,1,39.27,17.67c13.82,8.82,29.51,18.85,39.48,38.46,2.77,5.45,14.47,28.46,6.47,55.49-7.56,25.58-31.06,49.07-62,51.6-35,2.87-57.82-22.89-60.24-25.72" transform="translate(-70.75 -157.19)"/></svg>